<svg width="800" height="800" viewBox="0 0 800 800" fill="none" stroke="white" xmlns="http://www.w3.org/2000/svg">
  <style>
    path {
      stroke: white;
      fill: white;
    }

    @media (prefers-color-scheme: dark) {
      path {
        stroke: black;
        fill: black;
      }
    }
  </style>
<g filter="url(#filter0_d_1252_287)">
<path fill-rule="evenodd" clip-rule="evenodd" d="M716.462 445.008C714.315 459.268 708.88 472.835 700.587 484.639C692.295 496.443 681.378 506.159 668.687 513.018C665.172 514.967 661.489 516.602 657.689 517.905C662.519 581.9 560.801 605.171 505.985 589.929L526.352 661.138L473.98 663L382.329 531.809C351.43 540.536 314.944 544.725 291.376 506.909C289.236 503.436 287.293 499.841 285.557 496.147C279.562 497.368 273.462 497.991 267.344 498.008C249.886 498.008 220.791 492.772 206.01 482.533C194.292 474.766 184.996 463.858 179.184 451.059C147.703 455.364 120.993 447.975 103.536 429.708C81.4232 406.96 75.1385 369.378 86.6603 329.06C101.848 275.246 148.052 214.625 239.877 191.878C247.843 181.977 257.377 173.448 268.1 166.628C325.767 129.686 419.397 126.486 490.448 161.567C517.993 156.437 546.428 159.158 572.497 169.421C623.589 188.561 660.715 228.588 667.698 269.254C681.53 276.42 692.854 287.619 700.168 301.368C715.473 330.108 717.626 358.906 707.326 382.177C717.026 401.602 720.233 423.628 716.462 445.008ZM678.754 414.756C670.619 419.05 661.564 421.295 652.364 421.295C643.164 421.295 634.11 419.05 625.975 414.756L630.223 386.54C648.146 388.285 662.752 382.7 670.375 371.239C678.929 358.498 677.59 339.591 666.767 319.287C654.663 296.539 628.535 292.932 614.046 292.758H613.115C576.803 292.758 539.794 313.411 524.839 340.347L503.075 329.933C507.354 316.057 514.624 303.288 524.373 292.525C515.98 285.4 509.636 276.169 505.995 265.781C502.354 255.392 501.547 244.22 503.657 233.416L525.13 231.438C526.113 240.177 529.727 248.41 535.494 255.049C541.261 261.687 548.912 266.418 557.426 268.614C575.337 260.621 594.784 256.65 614.395 256.978C617.188 256.978 619.865 257.269 622.6 257.444C608.686 232.783 586.638 213.72 560.219 203.513C495.743 178.497 452.275 217.301 442.324 230.682C418.349 262.796 433.712 293.165 445.408 312.887L426.205 330.34C409.481 315.877 398.259 296.089 394.433 274.315C369.818 281.704 336.765 280.133 318.261 248.543L335.718 236.558C355.328 251.219 386.461 249.939 401.241 231.846C404.763 223.846 409.216 216.288 414.509 209.331C422.911 198.236 433.051 188.571 444.535 180.707C396.295 167.559 328.153 169.712 286.954 196.124C275.821 202.588 266.657 211.959 260.444 223.232C254.232 234.507 251.206 247.258 251.69 260.12C251.69 280.889 267.984 313.701 289.922 318.821L277.178 343.547C263.181 340.306 250.473 332.951 240.692 322.428L221.78 346.514L202.868 337.322L221.373 288.918C218.349 279.516 216.799 269.704 216.775 259.829C216.822 252.01 217.641 244.216 219.22 236.558C161.029 260.585 132.282 300.553 121.75 337.089C113.661 365.189 116.803 390.554 130.071 404.168C140.603 414.989 156.722 417.549 171.91 416.56L212.644 384.853L226.028 396.139L213.924 435.816C220.267 456.004 241.041 466.418 278.924 459.087C280.887 443.025 287.229 427.811 297.254 415.105C304.605 404.528 314.33 395.825 325.651 389.681L345.552 336.1L365.454 335.227L363.301 379.151C396.76 375.719 434.177 382.526 469.034 377.29L475.435 400.561C424.343 424.181 372.029 385.667 324.604 436.456C307.554 454.724 314.071 470.607 324.604 486.605C339.791 509.469 368.305 495.739 397.459 486.605C441.626 473.108 473.689 463.334 534.149 468.28C519.718 440.878 521.115 407.775 540.434 371.356L568.889 382.584C548.93 428.602 567.609 455.248 580.528 467C600.487 485.151 630.514 490.62 650.357 479.682C657.957 475.488 664.491 469.6 669.455 462.479C674.419 455.358 677.678 447.19 678.987 438.609C680.296 430.703 680.197 422.627 678.696 414.756H678.754Z"/>
</g>
<defs>
<filter id="filter0_d_1252_287" x="77" y="137" width="645" height="537" filterUnits="userSpaceOnUse" color-interpolation-filters="sRGB">
<feFlood flood-opacity="0" result="BackgroundImageFix"/>
<feColorMatrix in="SourceAlpha" type="matrix" values="0 0 0 0 0 0 0 0 0 0 0 0 0 0 0 0 0 0 127 0" result="hardAlpha"/>
<feOffset dy="7"/>
<feGaussianBlur stdDeviation="2"/>
<feComposite in2="hardAlpha" operator="out"/>
<feColorMatrix type="matrix" values="0 0 0 0 0 0 0 0 0 0 0 0 0 0 0 0 0 0 0.25 0"/>
<feBlend mode="normal" in2="BackgroundImageFix" result="effect1_dropShadow_1252_287"/>
<feBlend mode="normal" in="SourceGraphic" in2="effect1_dropShadow_1252_287" result="shape"/>
</filter>
</defs>
</svg>
